<svg width="45" height="45" viewBox="0 0 45 45" fill="none" xmlns="http://www.w3.org/2000/svg">
<path fill-rule="evenodd" clip-rule="evenodd" d="M13.619 1.0875C15.9161 0.981752 16.6485 0.958252 22.5 0.958252C28.3515 0.958252 29.0839 0.98371 31.3791 1.0875C33.6743 1.19129 35.2409 1.5575 36.6118 2.08821C38.0472 2.63067 39.3495 3.47863 40.4266 4.57529C41.5233 5.65042 42.3693 6.95075 42.9098 8.38817C43.4424 9.759 43.8067 11.3257 43.9124 13.6169C44.0182 15.918 44.0417 16.6504 44.0417 22.4999C44.0417 28.3514 44.0162 29.0838 43.9124 31.381C43.8086 33.6722 43.4424 35.2389 42.9098 36.6097C42.3692 38.0473 41.5218 39.3498 40.4266 40.4265C39.3495 41.5232 38.0472 42.3692 36.6118 42.9097C35.2409 43.4423 33.6743 43.8066 31.383 43.9123C29.0839 44.0181 28.3515 44.0416 22.5 44.0416C16.6485 44.0416 15.9161 44.0161 13.619 43.9123C11.3277 43.8085 9.76105 43.4423 8.39022 42.9097C6.95265 42.3691 5.65016 41.5217 4.57343 40.4265C3.4775 39.3507 2.62942 38.0489 2.0883 36.6117C1.55759 35.2408 1.19334 33.6742 1.08759 31.3829C0.981843 29.0819 0.958344 28.3495 0.958344 22.4999C0.958344 16.6484 0.983802 15.916 1.08759 13.6208C1.19139 11.3257 1.55759 9.759 2.0883 8.38817C2.63022 6.95091 3.47895 5.64907 4.57538 4.57334C5.65059 3.47765 6.95177 2.62958 8.38826 2.08821C9.75909 1.5575 11.3258 1.19325 13.617 1.0875H13.619ZM31.2048 4.965C28.9331 4.86121 28.2516 4.83967 22.5 4.83967C16.7484 4.83967 16.0669 4.86121 13.7952 4.965C11.6939 5.06096 10.5542 5.4115 9.79434 5.70721C8.78972 6.09888 8.07101 6.563 7.31705 7.31696C6.60235 8.01227 6.05232 8.85872 5.7073 9.79425C5.41159 10.5541 5.06105 11.6938 4.96509 13.7951C4.8613 16.0668 4.83976 16.7483 4.83976 22.4999C4.83976 28.2515 4.8613 28.933 4.96509 31.2047C5.06105 33.306 5.41159 34.4458 5.7073 35.2056C6.05197 36.1397 6.60226 36.9877 7.31705 37.6829C8.01226 38.3977 8.86022 38.948 9.79434 39.2926C10.5542 39.5883 11.6939 39.9389 13.7952 40.0348C16.0669 40.1386 16.7464 40.1602 22.5 40.1602C28.2536 40.1602 28.9331 40.1386 31.2048 40.0348C33.3061 39.9389 34.4458 39.5883 35.2057 39.2926C36.2103 38.901 36.929 38.4368 37.683 37.6829C38.3978 36.9877 38.9481 36.1397 39.2927 35.2056C39.5884 34.4458 39.939 33.306 40.0349 31.2047C40.1387 28.933 40.1603 28.2515 40.1603 22.4999C40.1603 16.7483 40.1387 16.0668 40.0349 13.7951C39.939 11.6938 39.5884 10.5541 39.2927 9.79425C38.9011 8.78963 38.4369 8.07092 37.683 7.31696C36.9876 6.60231 36.1412 6.05229 35.2057 5.70721C34.4458 5.4115 33.3061 5.06096 31.2048 4.965ZM19.7486 29.1406C21.2852 29.7803 22.9962 29.8666 24.5894 29.3849C26.1826 28.9031 27.5592 27.8832 28.4839 26.4993C29.4087 25.1154 29.8243 23.4534 29.6598 21.7971C29.4953 20.1408 28.7608 18.593 27.5819 17.418C26.8303 16.667 25.9216 16.0919 24.9212 15.7342C23.9207 15.3764 22.8533 15.245 21.796 15.3493C20.7386 15.4536 19.7175 15.791 18.8062 16.3373C17.8949 16.8836 17.1161 17.6251 16.5257 18.5085C15.9354 19.392 15.5483 20.3953 15.3923 21.4463C15.2362 22.4972 15.3152 23.5697 15.6234 24.5866C15.9316 25.6034 16.4615 26.5392 17.1748 27.3267C17.8881 28.1141 18.7671 28.7337 19.7486 29.1406ZM14.6706 14.6705C15.6988 13.6423 16.9194 12.8267 18.2628 12.2703C19.6061 11.7138 21.046 11.4275 22.5 11.4275C23.9541 11.4275 25.3939 11.7138 26.7373 12.2703C28.0806 12.8267 29.3013 13.6423 30.3294 14.6705C31.3576 15.6987 32.1732 16.9193 32.7296 18.2627C33.2861 19.606 33.5725 21.0459 33.5725 22.4999C33.5725 23.954 33.2861 25.3938 32.7296 26.7372C32.1732 28.0805 31.3576 29.3012 30.3294 30.3293C28.2529 32.4058 25.4366 33.5724 22.5 33.5724C19.5634 33.5724 16.7471 32.4058 14.6706 30.3293C12.5941 28.2528 11.4275 25.4365 11.4275 22.4999C11.4275 19.5633 12.5941 16.747 14.6706 14.6705ZM36.0282 13.0764C36.283 12.8361 36.4869 12.547 36.628 12.2265C36.7691 11.9059 36.8444 11.5602 36.8495 11.21C36.8546 10.8598 36.7894 10.5121 36.6577 10.1875C36.5261 9.86294 36.3306 9.56808 36.0829 9.32041C35.8353 9.07274 35.5404 8.87728 35.2158 8.7456C34.8913 8.61392 34.5436 8.5487 34.1934 8.55381C33.8431 8.55892 33.4975 8.63424 33.1769 8.77532C32.8563 8.91641 32.5673 9.12038 32.3269 9.37517C31.8595 9.87068 31.6036 10.5289 31.6135 11.21C31.6234 11.8911 31.8984 12.5416 32.3801 13.0232C32.8618 13.5049 33.5122 13.7799 34.1934 13.7898C34.8745 13.7998 35.5327 13.5439 36.0282 13.0764Z" fill="white"/>
</svg>
