<svg width="45" height="45" viewBox="0 0 45 45" fill="none" xmlns="http://www.w3.org/2000/svg">
<path d="M24.375 15C25.8668 15 27.2976 15.5926 28.3525 16.6475C29.4074 17.7024 30 19.1332 30 20.625C30 21.1223 30.1975 21.5992 30.5492 21.9508C30.9008 22.3025 31.3777 22.5 31.875 22.5C32.3723 22.5 32.8492 22.3025 33.2008 21.9508C33.5525 21.5992 33.75 21.1223 33.75 20.625C33.75 18.1386 32.7623 15.754 31.0041 13.9959C29.246 12.2377 26.8614 11.25 24.375 11.25C23.8777 11.25 23.4008 11.4475 23.0492 11.7992C22.6975 12.1508 22.5 12.6277 22.5 13.125C22.5 13.6223 22.6975 14.0992 23.0492 14.4508C23.4008 14.8025 23.8777 15 24.375 15Z" fill="white"/>
<path d="M24.375 7.5C27.856 7.5 31.1944 8.88281 33.6558 11.3442C36.1172 13.8056 37.5 17.144 37.5 20.625C37.5 21.1223 37.6975 21.5992 38.0492 21.9508C38.4008 22.3025 38.8777 22.5 39.375 22.5C39.8723 22.5 40.3492 22.3025 40.7008 21.9508C41.0525 21.5992 41.25 21.1223 41.25 20.625C41.25 16.1495 39.4721 11.8572 36.3074 8.69257C33.1427 5.5279 28.8505 3.75 24.375 3.75C23.8777 3.75 23.4008 3.94754 23.0492 4.29917C22.6975 4.65081 22.5 5.12772 22.5 5.625C22.5 6.12228 22.6975 6.59919 23.0492 6.95083C23.4008 7.30246 23.8777 7.5 24.375 7.5ZM40.7812 29.8312C40.6781 29.5302 40.5001 29.2604 40.2639 29.0472C40.0277 28.834 39.7412 28.6844 39.4313 28.6125L28.1812 26.0438C27.8759 25.9745 27.558 25.9828 27.2567 26.068C26.9554 26.1532 26.6802 26.3124 26.4562 26.5312C26.1937 26.775 26.175 26.7937 24.9563 29.1187C20.9122 27.2553 17.6719 24.0016 15.825 19.95C18.2062 18.75 18.225 18.75 18.4688 18.4688C18.6876 18.2448 18.8468 17.9696 18.932 17.6683C19.0171 17.367 19.0255 17.0491 18.9562 16.7438L16.3875 5.625C16.3156 5.31505 16.166 5.02851 15.9528 4.79233C15.7396 4.55616 15.4698 4.37813 15.1688 4.275C14.7309 4.11861 14.2787 4.00556 13.8187 3.9375C13.3448 3.82762 12.8612 3.76481 12.375 3.75C10.0875 3.75 7.89371 4.6587 6.2762 6.2762C4.6587 7.89371 3.75 10.0875 3.75 12.375C3.75992 20.0301 6.80529 27.3688 12.2183 32.7817C17.6312 38.1947 24.9699 41.2401 32.625 41.25C33.7577 41.25 34.8792 41.0269 35.9256 40.5935C36.9721 40.16 37.9229 39.5247 38.7238 38.7238C39.5247 37.9229 40.16 36.9721 40.5935 35.9256C41.0269 34.8792 41.25 33.7577 41.25 32.625C41.2506 32.1478 41.213 31.6712 41.1375 31.2C41.0587 30.7343 40.9395 30.2763 40.7812 29.8312ZM32.625 37.5C25.963 37.495 19.5752 34.8463 14.8644 30.1356C10.1537 25.4248 7.50497 19.037 7.5 12.375C7.50494 11.0836 8.02014 9.84648 8.93331 8.93331C9.84648 8.02014 11.0836 7.50494 12.375 7.5H12.9937L15 16.2L13.9875 16.725C12.375 17.5688 11.1 18.2438 11.775 19.7063C12.8742 22.818 14.6527 25.6457 16.9814 27.9842C19.3101 30.3226 22.1304 32.1129 25.2375 33.225C26.8125 33.8625 27.4312 32.6812 28.275 31.05L28.8188 30.0188L37.5 32.0062V32.625C37.4951 33.9164 36.9799 35.1535 36.0667 36.0667C35.1535 36.9799 33.9164 37.4951 32.625 37.5Z" fill="white"/>
</svg>
